<svg width="152" height="186" xmlns="http://www.w3.org/2000/svg">

 <g>
  <title>Layer 1</title>
  <path stroke-width="2" id="svg_1" d="m113.07352,-0.00001c-26.81617,4.93812 -35.72256,27.39807 -36.07009,40.24041c14.74162,1.06683 23.97938,-7.26574 27.73752,-12.13921c6.15042,-6.91822 7.63752,-16.65706 8.33257,-28.10121zm3.29747,44.36225c-19.38878,0 -30.2187,7.92039 -35.54476,8.00929c-6.13426,-0.47684 -23.97938,-7.65368 -34.38903,-7.76683c-36.44994,1.08299 -46.87576,40.69301 -46.42317,57.72184c2.9661,65.18155 42.74584,82.01641 49.24379,83.59241c5.22099,1.02642 22.7994,-8.04162 35.72256,-7.62135c14.1193,1.47093 23.99554,7.31423 29.65296,6.91013c7.18492,-0.50109 30.57431,-19.39687 37.62992,-48.54874c-14.2082,-12.01797 -22.98529,-22.92063 -23.76924,-33.24946c-0.37177,-4.67949 6.66767,-31.11581 17.87744,-38.54319c1.61641,-9.13269 -15.03257,-20.72232 -28.09313,-20.46369c-0.64656,-0.02425 -1.27696,-0.04041 -1.90736,-0.04041z" stroke="#000" fill="none"/>
 </g>
</svg>